<svg width="1200" height="660" viewBox="0 0 1200 660" fill="none" xmlns="http://www.w3.org/2000/svg">
  <rect width="1200" height="660" rx="24" fill="#FFFFFF"/>
  <rect x="1.5" y="1.5" width="1197" height="657" rx="22.5" stroke="#D9DEE7" stroke-width="3"/>
  <text x="52" y="82" fill="#3D4B63" font-family="Arial, sans-serif" font-size="26">Maintained a consistent posting cadence of 3-4 posts per day.</text>
  <text x="52" y="126" fill="#3D4B63" font-family="Arial, sans-serif" font-size="26">Publishing volume stayed stable during the main growth phase.</text>

  <rect x="52" y="170" width="1096" height="420" rx="18" fill="#F9FBFD" stroke="#E0E7F0"/>
  <g transform="translate(90 220)">
    <rect width="1010" height="310" rx="16" fill="#FFFFFF" stroke="#DCE6F2"/>
    <text x="24" y="34" fill="#70819C" font-family="Arial, sans-serif" font-size="16">Posting activity by week</text>
    <line x1="24" y1="260" x2="976" y2="260" stroke="#D9E2EF"/>
    <line x1="24" y1="210" x2="976" y2="210" stroke="#EEF3F8"/>
    <line x1="24" y1="160" x2="976" y2="160" stroke="#EEF3F8"/>
    <line x1="24" y1="110" x2="976" y2="110" stroke="#EEF3F8"/>
    <line x1="24" y1="60" x2="976" y2="60" stroke="#EEF3F8"/>
    <rect x="56" y="106" width="44" height="154" rx="8" fill="#8CC7F7"/>
    <rect x="126" y="92" width="44" height="168" rx="8" fill="#8CC7F7"/>
    <rect x="196" y="120" width="44" height="140" rx="8" fill="#8CC7F7"/>
    <rect x="266" y="82" width="44" height="178" rx="8" fill="#4CA9E8"/>
    <rect x="336" y="96" width="44" height="164" rx="8" fill="#8CC7F7"/>
    <rect x="406" y="74" width="44" height="186" rx="8" fill="#4CA9E8"/>
    <rect x="476" y="88" width="44" height="172" rx="8" fill="#8CC7F7"/>
    <rect x="546" y="100" width="44" height="160" rx="8" fill="#8CC7F7"/>
    <rect x="616" y="80" width="44" height="180" rx="8" fill="#4CA9E8"/>
    <rect x="686" y="92" width="44" height="168" rx="8" fill="#8CC7F7"/>
    <rect x="756" y="108" width="44" height="152" rx="8" fill="#8CC7F7"/>
    <rect x="826" y="86" width="44" height="174" rx="8" fill="#4CA9E8"/>
    <rect x="896" y="96" width="44" height="164" rx="8" fill="#8CC7F7"/>
    <text x="54" y="286" fill="#7B8BA3" font-family="Arial, sans-serif" font-size="14">W1</text>
    <text x="264" y="286" fill="#7B8BA3" font-family="Arial, sans-serif" font-size="14">W4</text>
    <text x="474" y="286" fill="#7B8BA3" font-family="Arial, sans-serif" font-size="14">W7</text>
    <text x="684" y="286" fill="#7B8BA3" font-family="Arial, sans-serif" font-size="14">W10</text>
    <text x="894" y="286" fill="#7B8BA3" font-family="Arial, sans-serif" font-size="14">W13</text>
  </g>
</svg>
