<svg width="1200" height="700" viewBox="0 0 1200 700" fill="none" xmlns="http://www.w3.org/2000/svg">
  <rect width="1200" height="700" rx="24" fill="#FFFFFF"/>
  <rect x="1.5" y="1.5" width="1197" height="697" rx="22.5" stroke="#D9DEE7" stroke-width="3"/>
  <text x="52" y="82" fill="#3D4B63" font-family="Arial, sans-serif" font-size="26">Reached 10,000 followers in just over 3 months.</text>
  <text x="52" y="128" fill="#3D4B63" font-family="Arial, sans-serif" font-size="26">Achieved an average of 15M+ monthly views on the Fanpage.</text>

  <g transform="translate(52 180)">
    <rect width="250" height="150" rx="12" fill="#F8FBFF" stroke="#D8E6F7"/>
    <text x="18" y="28" fill="#70819C" font-family="Arial, sans-serif" font-size="14">Views</text>
    <text x="18" y="56" fill="#2F415D" font-family="Arial, sans-serif" font-size="26" font-weight="700">65.7M</text>
    <path d="M18 116 C 48 102, 72 132, 98 110 S 148 88, 176 98 S 220 128, 232 92" stroke="#78BFF3" stroke-width="4" fill="none"/>
  </g>
  <g transform="translate(322 180)">
    <rect width="250" height="150" rx="12" fill="#F8FBFF" stroke="#D8E6F7"/>
    <text x="18" y="28" fill="#70819C" font-family="Arial, sans-serif" font-size="14">Page likes</text>
    <text x="18" y="56" fill="#2F415D" font-family="Arial, sans-serif" font-size="26" font-weight="700">10.8K</text>
    <path d="M18 116 C 52 120, 74 88, 104 96 S 146 124, 184 106 S 226 84, 232 98" stroke="#78BFF3" stroke-width="4" fill="none"/>
  </g>
  <g transform="translate(592 180)">
    <rect width="250" height="150" rx="12" fill="#F8FBFF" stroke="#D8E6F7"/>
    <text x="18" y="28" fill="#70819C" font-family="Arial, sans-serif" font-size="14">Followers</text>
    <text x="18" y="56" fill="#2F415D" font-family="Arial, sans-serif" font-size="26" font-weight="700">64.3K</text>
    <path d="M18 116 C 42 122, 74 84, 96 96 S 148 126, 178 104 S 224 74, 232 92" stroke="#78BFF3" stroke-width="4" fill="none"/>
  </g>
  <g transform="translate(862 180)">
    <rect width="286" height="150" rx="12" fill="#F8FBFF" stroke="#D8E6F7"/>
    <text x="18" y="28" fill="#70819C" font-family="Arial, sans-serif" font-size="14">Reach</text>
    <text x="18" y="56" fill="#2F415D" font-family="Arial, sans-serif" font-size="26" font-weight="700">7.7K</text>
    <path d="M18 116 C 44 128, 88 92, 118 98 S 166 126, 206 102 S 250 72, 268 90" stroke="#78BFF3" stroke-width="4" fill="none"/>
  </g>

  <g transform="translate(52 360)">
    <rect width="250" height="150" rx="12" fill="#F8FBFF" stroke="#D8E6F7"/>
    <text x="18" y="28" fill="#70819C" font-family="Arial, sans-serif" font-size="14">Total engagements</text>
    <text x="18" y="56" fill="#2F415D" font-family="Arial, sans-serif" font-size="26" font-weight="700">160K</text>
    <path d="M18 116 C 56 92, 78 132, 110 114 S 154 92, 184 96 S 216 126, 232 98" stroke="#78BFF3" stroke-width="4" fill="none"/>
  </g>
  <g transform="translate(322 360)">
    <rect width="250" height="150" rx="12" fill="#F8FBFF" stroke="#D8E6F7"/>
    <text x="18" y="28" fill="#70819C" font-family="Arial, sans-serif" font-size="14">Link clicks</text>
    <text x="18" y="56" fill="#2F415D" font-family="Arial, sans-serif" font-size="26" font-weight="700">69.8K</text>
    <path d="M18 116 C 46 106, 82 126, 114 98 S 158 86, 192 100 S 228 130, 232 96" stroke="#78BFF3" stroke-width="4" fill="none"/>
  </g>
  <g transform="translate(592 360)">
    <rect width="556" height="150" rx="12" fill="#F8FBFF" stroke="#D8E6F7"/>
    <text x="18" y="28" fill="#70819C" font-family="Arial, sans-serif" font-size="14">Fanpage performance trend</text>
    <path d="M18 118 C 64 120, 88 40, 124 92 S 188 146, 232 82 S 304 44, 348 88 S 430 142, 478 104 S 530 52, 538 78" stroke="#49A9E9" stroke-width="5" fill="none"/>
    <line x1="18" y1="118" x2="538" y2="118" stroke="#D9E2EF"/>
  </g>
</svg>
