<svg width="1200" height="640" viewBox="0 0 1200 640" fill="none" xmlns="http://www.w3.org/2000/svg">
  <rect width="1200" height="640" rx="24" fill="#FFFFFF"/>
  <rect x="1.5" y="1.5" width="1197" height="637" rx="22.5" stroke="#D9DEE7" stroke-width="3"/>
  <text x="52" y="80" fill="#3D4B63" font-family="Arial, sans-serif" font-size="26">Generated conversions from social media to website/app traffic.</text>

  <rect x="52" y="122" width="1096" height="456" rx="16" fill="#F9FBFD" stroke="#E0E7F0"/>
  <rect x="52" y="122" width="1096" height="50" rx="16" fill="#F2F6FB"/>
  <circle cx="86" cy="147" r="10" fill="#3B82F6"/>
  <circle cx="118" cy="147" r="10" fill="#E4EAF3"/>
  <text x="166" y="154" fill="#5A6D89" font-family="Arial, sans-serif" font-size="20" font-weight="700">Quick traffic overview</text>

  <g transform="translate(88 212)">
    <rect width="290" height="290" rx="12" fill="#FFFFFF" stroke="#DCE6F2"/>
    <text x="18" y="30" fill="#70819C" font-family="Arial, sans-serif" font-size="15">Top traffic sources</text>
    <rect x="18" y="58" width="254" height="34" rx="8" fill="#F5F8FC"/>
    <text x="28" y="80" fill="#56677F" font-family="Arial, sans-serif" font-size="14">(direct) / (none)</text>
    <text x="222" y="80" fill="#2F415D" font-family="Arial, sans-serif" font-size="14" font-weight="700">1.4K</text>
    <rect x="18" y="100" width="254" height="34" rx="8" fill="#F5F8FC"/>
    <text x="28" y="122" fill="#56677F" font-family="Arial, sans-serif" font-size="14">facebook.com / referral</text>
    <text x="226" y="122" fill="#2F415D" font-family="Arial, sans-serif" font-size="14" font-weight="700">53</text>
    <rect x="18" y="142" width="254" height="34" rx="8" fill="#FFF4E8" stroke="#FF9F43"/>
    <text x="28" y="164" fill="#56677F" font-family="Arial, sans-serif" font-size="14">m.facebook.com / referral</text>
    <text x="222" y="164" fill="#D97706" font-family="Arial, sans-serif" font-size="14" font-weight="700">8.8K</text>
    <rect x="18" y="184" width="254" height="34" rx="8" fill="#F5F8FC"/>
    <text x="28" y="206" fill="#56677F" font-family="Arial, sans-serif" font-size="14">google / organic</text>
    <text x="222" y="206" fill="#2F415D" font-family="Arial, sans-serif" font-size="14" font-weight="700">6.4K</text>
  </g>

  <g transform="translate(410 212)">
    <rect width="290" height="290" rx="12" fill="#FFFFFF" stroke="#DCE6F2"/>
    <text x="18" y="30" fill="#70819C" font-family="Arial, sans-serif" font-size="15">User activity</text>
    <rect x="18" y="58" width="254" height="34" rx="8" fill="#F5F8FC"/>
    <text x="28" y="80" fill="#56677F" font-family="Arial, sans-serif" font-size="14">facebook.com / referral</text>
    <text x="226" y="80" fill="#2F415D" font-family="Arial, sans-serif" font-size="14" font-weight="700">141</text>
    <rect x="18" y="100" width="254" height="34" rx="8" fill="#F5F8FC"/>
    <text x="28" y="122" fill="#56677F" font-family="Arial, sans-serif" font-size="14">google / organic</text>
    <text x="226" y="122" fill="#2F415D" font-family="Arial, sans-serif" font-size="14" font-weight="700">12</text>
    <rect x="18" y="142" width="254" height="34" rx="8" fill="#F5F8FC"/>
    <text x="28" y="164" fill="#56677F" font-family="Arial, sans-serif" font-size="14">m.facebook.com / referral</text>
    <text x="226" y="164" fill="#2F415D" font-family="Arial, sans-serif" font-size="14" font-weight="700">6.5K</text>
    <rect x="18" y="184" width="254" height="34" rx="8" fill="#F5F8FC"/>
    <text x="28" y="206" fill="#56677F" font-family="Arial, sans-serif" font-size="14">s.google.com / referral</text>
    <text x="226" y="206" fill="#2F415D" font-family="Arial, sans-serif" font-size="14" font-weight="700">5.1K</text>
  </g>

  <g transform="translate(732 212)">
    <rect width="360" height="290" rx="12" fill="#FFFFFF" stroke="#DCE6F2"/>
    <text x="18" y="30" fill="#70819C" font-family="Arial, sans-serif" font-size="15">Returning users trend</text>
    <line x1="18" y1="234" x2="332" y2="234" stroke="#D9E2EF"/>
    <path d="M26 226 C 62 220, 84 184, 120 182 S 170 126, 214 96 S 266 236, 314 140" stroke="#60A5FA" stroke-width="5" fill="none"/>
    <path d="M26 230 C 70 228, 110 226, 156 224 S 230 226, 314 228" stroke="#9ED38A" stroke-width="4" fill="none"/>
    <circle cx="314" cy="140" r="6" fill="#60A5FA"/>
    <circle cx="314" cy="228" r="6" fill="#9ED38A"/>
    <text x="26" y="266" fill="#60A5FA" font-family="Arial, sans-serif" font-size="14" font-weight="700">new</text>
    <text x="88" y="266" fill="#7FB56A" font-family="Arial, sans-serif" font-size="14" font-weight="700">returning</text>
  </g>
</svg>
